<?xml version="1.0" encoding="UTF-8"?>
<svg width="670px" height="306px" viewBox="0 0 670 306" version="1.1" xmlns="http://www.w3.org/2000/svg" xmlns:xlink="http://www.w3.org/1999/xlink">
    <!-- Generator: Sketch 49.3 (51167) - http://www.bohemiancoding.com/sketch -->
    <title>normal-distribution-variance</title>
    <desc>Created with Sketch.</desc>
    <defs></defs>
    <g id="Page-1" stroke="none" stroke-width="1" fill="none" fill-rule="evenodd">
        <g id="Low-variance" transform="translate(1.000000, 1.000000)">
            <g id="colours" transform="translate(5.000000, 260.000000)" fill="#BDC9E1" fill-rule="nonzero">
                <path d="M20.3043252,3.12137931 C13.6953008,3.48972414 7.08308943,3.60124138 0.470878049,3.66037931 L37.1021626,3.66037931 L37.1021626,1.04648276 C31.5249268,2.32217241 25.9062602,2.8087931 20.3043252,3.12137931 Z" id="path38"></path>
                <path d="M292.533984,3.65362069 C286.043675,3.59448276 279.548585,3.49817241 273.061463,3.0842069 C267.657919,2.73951724 262.267122,2.13293103 256.890667,0.968758621 L256.890667,3.66206897 L293.521951,3.66206897 C293.192098,3.65868966 292.863837,3.65531034 292.533984,3.65362069 Z" id="path48"></path>
            </g>
            <path d="M150.5,0.5 L150.5,281.644091" id="Line" stroke="#FF0000" stroke-width="2" stroke-linecap="square"></path>
            <path d="M5,263 L0,263" id="line67" stroke="#FF0000" stroke-width="2" stroke-linejoin="round"></path>
            <path d="M5,263 L298,263" id="line87" stroke="#FF0000" stroke-width="2" stroke-linecap="round" stroke-linejoin="round"></path>
            <path d="M5,263.996611 C11.611059,263.937307 18.222118,263.823782 24.8299906,263.456095 C31.148694,263.101964 37.4912958,262.530949 43.7701688,260.846708 C50.4178718,259.062497 56.94688,256.102367 63.2042446,250.715846 C69.4393041,245.34627 74.9518391,237.204642 80.0445612,227.687156 C84.9954868,218.435692 89.3274471,207.066219 93.1384251,195.500194 C97.0593351,183.598677 100.695059,171.25492 104.067902,158.551948 C107.545101,145.457568 110.873334,132.183581 114.174482,118.868928 C117.409511,105.818602 120.650117,92.7835267 124.014994,79.8958645 C127.303397,67.2962515 130.857866,54.7847477 135.018556,43.505078 C137.17418,37.661067 139.548872,32.4490701 142.207953,27.7504785 C144.794543,23.1789675 147.918047,20.6017739 151.186534,20.0561747 C154.501225,19.5037979 157.647831,23.1128856 160.322048,27.0218833 C163.057603,31.0206847 165.331922,36.6427282 167.446123,42.1224416 C171.801981,53.4038057 175.310248,66.262663 178.738057,78.9758013 C182.059917,91.2975315 185.130048,103.958143 188.247977,116.537423 C191.531599,129.787689 194.813629,143.041343 198.273302,156.07303 C201.630213,168.718392 205.147242,181.18923 209.05222,193.039915 C213.056774,205.193899 217.439717,216.620982 222.476677,226.73151 C227.425213,236.665821 233.081137,244.414346 239.209451,250.195663 C245.107545,255.761791 251.579197,258.794781 257.921799,260.49766 C264.439655,262.246288 270.983002,263.0003 277.543078,263.420513 C284.029866,263.835642 290.523027,263.932224 297.012205,263.991528 C297.342001,263.993222 297.670204,263.996611 298,264" id="path89" stroke="#FF0000" stroke-width="2" stroke-linecap="round" stroke-linejoin="round"></path>
        </g>
        <g id="High-variance" transform="translate(371.000000, 66.000000)">
            <g id="colours" transform="translate(5.000000, 129.000000)" fill="#BDC9E1" fill-rule="nonzero">
                <path d="M20.3043252,3.12137931 C13.6953008,3.48972414 7.08308943,3.60124138 0.470878049,3.66037931 L37.1021626,3.66037931 L37.1021626,1.04648276 C31.5249268,2.32217241 25.9062602,2.8087931 20.3043252,3.12137931 Z" id="path38"></path>
                <path d="M292.533984,3.65362069 C286.043675,3.59448276 279.548585,3.49817241 273.061463,3.0842069 C267.657919,2.73951724 262.267122,2.13293103 256.890667,0.968758621 L256.890667,3.66206897 L293.521951,3.66206897 C293.192098,3.65868966 292.863837,3.65531034 292.533984,3.65362069 Z" id="path48"></path>
            </g>
            <path d="M150.5,0.496691935 L150.5,151.644091" id="Line" stroke="#FF0101" stroke-width="2" stroke-linecap="square"></path>
            <path d="M5,133 L0,133" id="line67" stroke="#FF0101" stroke-width="2" stroke-linejoin="round"></path>
            <path d="M5,133 L298,133" id="line87" stroke="#FF0101" stroke-width="2" stroke-linecap="round" stroke-linejoin="round"></path>
            <path d="M5,130.999236 C11.611059,130.985868 18.222118,130.960279 24.8299906,130.877399 C31.148694,130.797574 37.4912958,130.668861 43.7701688,130.289217 C50.4178718,129.887038 56.94688,129.219796 63.2042446,128.005621 C69.4393041,126.795266 74.9518391,124.960063 80.0445612,122.814728 C84.9954868,120.729357 89.3274471,118.166566 93.1384251,115.55947 C97.0593351,112.876751 100.695059,110.094347 104.067902,107.230972 C107.545101,104.27937 110.873334,101.287283 114.174482,98.2860288 C117.409511,95.3443571 120.650117,92.4061228 124.014994,89.501117 C127.303397,86.6610403 130.857866,83.8408243 135.018556,81.2982758 C137.17418,79.9809782 139.548872,78.8061428 142.207953,77.7470341 C144.794543,76.7165705 147.918047,76.1356458 151.186534,76.0126623 C154.501225,75.8881512 157.647831,76.701675 160.322048,77.5828016 C163.057603,78.4841707 165.331922,79.7514346 167.446123,80.9866159 C171.801981,83.5295464 175.310248,86.4280593 178.738057,89.2937257 C182.059917,92.0711649 185.130048,94.9249913 188.247977,97.7604848 C191.531599,100.747225 194.813629,103.734729 198.273302,106.672199 C201.630213,109.522588 205.147242,112.333638 209.05222,115.004899 C213.056774,117.744526 217.439717,120.320303 222.476677,122.599316 C227.425213,124.838607 233.081137,126.585201 239.209451,127.888367 C245.107545,129.143027 251.579197,129.826692 257.921799,130.210538 C264.439655,130.604696 270.983002,130.774658 277.543078,130.869378 C284.029866,130.962952 290.523027,130.984723 297.012205,130.99809 C297.342001,130.998472 297.670204,130.999236 298,131" id="path89" stroke="#FF0101" stroke-width="2" stroke-linecap="round" stroke-linejoin="round"></path>
        </g>
        <text id="high-variance" font-family="Helvetica" font-size="14" font-weight="normal" fill="#FF0000">
            <tspan x="479.362305" y="247">high variance</tspan>
        </text>
        <text id="low-variance" font-family="Helvetica" font-size="14" font-weight="normal" fill="#FF0000">
            <tspan x="112.093262" y="303">low variance</tspan>
        </text>
    </g>
</svg>